<?xml version="1.0" encoding="UTF-8" standalone="no"?>
<svg
   xmlns:dc="http://purl.org/dc/elements/1.1/"
   xmlns:cc="http://creativecommons.org/ns#"
   xmlns:rdf="http://www.w3.org/1999/02/22-rdf-syntax-ns#"
   xmlns:svg="http://www.w3.org/2000/svg"
   xmlns="http://www.w3.org/2000/svg"
   id="Layer_1"
   version="1.1"
   viewBox="0 0 64 64"
   xml:space="preserve"
   width="64"
   height="64"><metadata
     id="metadata101"><rdf:RDF><cc:Work
         rdf:about=""><dc:format>image/svg+xml</dc:format><dc:type
           rdf:resource="http://purl.org/dc/dcmitype/StillImage" /><dc:title></dc:title></cc:Work></rdf:RDF></metadata><defs
     id="defs99" /><g
     id="g108"
     transform="matrix(1.1706916,0,0,1.1996637,-22.616588,-25.229591)"
     style="fill:#aa00d4"><g
       id="g94"
       style="fill:#aa00d4"><path
         d="m 66.9,41.8 c 0,-11.3 -9.1,-20.4 -20.4,-20.4 -11.3,0 -20.4,9.1 -20.4,20.4 0,11.3 20.4,32.4 20.4,32.4 0,0 20.4,-21.1 20.4,-32.4 z M 37,41.4 c 0,-5.2 4.3,-9.5 9.5,-9.5 5.2,0 9.5,4.2 9.5,9.5 0,5.2 -4.2,9.5 -9.5,9.5 -5.2,0 -9.5,-4.3 -9.5,-9.5 z"
         id="path92"
         style="fill:#aa00d4" /></g><path
       id="rect103"
       style="fill:#aa00d4"
       d="M 34.573826,29.995224 H 56.594337 V 53.269518 H 34.573826 Z" /></g><path
     style="fill:#ffffff;stroke-width:0.03125"
     d=""
     id="path782" /><path
     style="fill:#ffffff;stroke-width:0.03125"
     d=""
     id="path784" /><path
     style="fill:#ffffff;stroke-width:0.03125"
     d="m 34.451102,18.099329 c 0.0015,-0.0364 0.0089,-0.04381 0.01888,-0.01888 0.009,0.02256 0.0079,0.04951 -0.0025,0.0599 -0.01038,0.01038 -0.01777,-0.0081 -0.01641,-0.04102 z"
     id="path788" /><g
     id="g917"
     transform="matrix(1.385225,0,0,1.4470003,10.450781,4.445469)"
     style="fill:#ffffff"><g
       id="g915"
       style="fill:#ffffff"><g
         id="g913"
         style="fill:#ffffff"><path
           d="M 29.49,5.073 C 29.413,4.954 29.291,4.873 29.152,4.848 L 29.142,4.847 C 27.849,5.272 24.996,5.232 21.75,4.667 18.504,4.102 15.81,3.175 14.734,2.338 L 14.726,2.337 C 14.587,2.313 14.444,2.348 14.332,2.434 14.22,2.52 14.149,2.649 14.137,2.788 l -0.411,4.674 c 0.119,-0.018 0.237,-0.039 0.357,-0.039 0.513,0 1.005,0.155 1.425,0.451 0.428,0.3 0.745,0.727 0.916,1.212 0.301,-0.221 0.755,-0.374 1.274,-0.395 0.928,-0.035 1.697,0.361 1.717,0.884 0.021,0.522 -0.718,0.975 -1.646,1.009 -0.428,0.016 -0.817,-0.063 -1.12,-0.2 l 0.622,4.717 c 0.724,-0.696 1.75,-1.057 2.815,-0.872 1.609,0.28 2.734,1.697 2.7,3.282 0,0.014 -0.006,0.024 -0.017,0.034 -0.01,0.008 -0.022,0.012 -0.035,0.009 l -5.262,-0.916 0.394,2.979 c 0.033,0.279 0.051,0.558 0.058,0.833 0.333,0.113 0.676,0.208 1.031,0.271 3.521,0.613 6.937,-1.541 7.896,-4.982 L 29.549,5.473 C 29.59,5.338 29.566,5.192 29.49,5.073 Z m -4.076,6.261 c -0.194,0.485 -1.051,0.598 -1.915,0.25 -0.861,-0.347 -1.401,-1.021 -1.208,-1.506 0.195,-0.484 1.053,-0.597 1.915,-0.25 0.862,0.347 1.403,1.021 1.208,1.506 z"
           id="path909"
           style="fill:#ffffff" /><path
           d="M 14.561,9.843 C 14.543,9.71 14.471,9.591 14.361,9.513 14.279,9.455 14.183,9.426 14.085,9.426 c -0.034,0 -0.068,0.004 -0.103,0.011 l -0.008,0.002 c -0.986,0.839 -3.51,1.832 -6.572,2.503 C 5.397,12.381 3.544,12.6 2.153,12.6 1.42,12.6 0.816,12.538 0.385,12.418 L 0.377,12.42 c -0.131,0.028 -0.244,0.11 -0.312,0.227 -0.068,0.116 -0.083,0.255 -0.044,0.383 l 2.989,9.646 c 0.908,2.77 3.484,4.563 6.292,4.563 0.47,0 0.946,-0.05 1.422,-0.154 3.321,-0.729 5.551,-3.854 5.159,-7.23 z M 4.044,17.723 C 4.041,17.227 4.755,16.82 5.639,16.814 6.523,16.807 7.242,17.209 7.245,17.705 7.248,18.202 6.534,18.61 5.65,18.615 4.767,18.62 4.048,18.221 4.044,17.723 Z m 6.031,6.4 C 8.612,24.443 7.168,23.676 6.579,22.36 6.558,22.311 6.558,22.256 6.582,22.208 6.606,22.159 6.65,22.126 6.703,22.114 l 5.594,-1.228 c 0.052,-0.011 0.106,0.001 0.148,0.035 0.042,0.033 0.066,0.084 0.067,0.137 0.016,1.442 -0.975,2.745 -2.437,3.065 z m 1.712,-6.854 c -0.806,0.364 -1.625,0.294 -1.83,-0.159 -0.206,-0.454 0.28,-1.116 1.085,-1.48 0.806,-0.364 1.625,-0.294 1.83,0.158 0.206,0.453 -0.279,1.116 -1.085,1.481 z"
           id="path911"
           style="fill:#ffffff" /></g></g></g></svg>
