<?xml version="1.0" encoding="UTF-8" standalone="no"?>
<svg
   xmlns:dc="http://purl.org/dc/elements/1.1/"
   xmlns:cc="http://creativecommons.org/ns#"
   xmlns:rdf="http://www.w3.org/1999/02/22-rdf-syntax-ns#"
   xmlns:svg="http://www.w3.org/2000/svg"
   xmlns="http://www.w3.org/2000/svg"
   id="Layer_1"
   version="1.1"
   viewBox="0 0 64 64"
   xml:space="preserve"
   width="64"
   height="64"><metadata
     id="metadata101"><rdf:RDF><cc:Work
         rdf:about=""><dc:format>image/svg+xml</dc:format><dc:type
           rdf:resource="http://purl.org/dc/dcmitype/StillImage" /><dc:title></dc:title></cc:Work></rdf:RDF></metadata><defs
     id="defs99" /><g
     id="g108"
     transform="matrix(1.1706916,0,0,1.1996637,-22.616588,-25.229591)"
     style="fill:#00aa44"><g
       id="g94"
       style="fill:#00aa44"><path
         d="m 66.9,41.8 c 0,-11.3 -9.1,-20.4 -20.4,-20.4 -11.3,0 -20.4,9.1 -20.4,20.4 0,11.3 20.4,32.4 20.4,32.4 0,0 20.4,-21.1 20.4,-32.4 z M 37,41.4 c 0,-5.2 4.3,-9.5 9.5,-9.5 5.2,0 9.5,4.2 9.5,9.5 0,5.2 -4.2,9.5 -9.5,9.5 -5.2,0 -9.5,-4.3 -9.5,-9.5 z"
         id="path92"
         style="fill:#00aa44" /></g><path
       id="rect103"
       style="fill:#00aa44"
       d="M 34.573826,29.995224 H 56.594337 V 53.269518 H 34.573826 Z" /></g><g
     transform="matrix(0.00321205,0,0,-0.00525918,53.929202,4.6980487)"
     fill="#000000"
     stroke="none"
     id="g429"
     style="fill:#ffffff"><path
       d="m 8155,6585 c -232,-51 -545,-66 -1315,-63 -624,3 -748,-2 -1000,-38 -408,-58 -737,-190 -985,-395 -115,-94 -279,-274 -323,-354 -28,-50 -25,-51 -123,20 -442,317 -928,424 -1489,326 -308,-54 -599,-156 -965,-336 C 1612,5576 1334,5410 795,5053 630,4944 476,4849 453,4842 342,4809 238,4654 199,4465 c -11,-55 -27,-112 -35,-127 -9,-16 -14,-55 -14,-102 0,-85 -4,-89 -78,-99 C 18,4130 -3,4114 2,4081 7,4051 308,3558 965,2505 1668,1378 1898,1003 2067,702 2276,330 2382,170 2503,43 l 40,-42 147,74 c 648,324 1417,650 2706,1144 188,72 429,170 535,217 336,148 485,204 654,245 117,29 321,31 480,6 247,-40 409,-30 610,37 132,45 196,77 377,192 215,137 310,189 407,224 174,63 371,100 756,140 110,12 414,48 675,81 1041,131 1715,208 2438,279 227,22 416,40 421,40 5,0 9,28 9,63 0,34 10,110 21,168 12,58 21,127 19,154 -3,49 -4,50 -93,123 -139,114 -421,324 -512,381 -46,29 -85,62 -89,74 -12,39 -4,127 17,185 36,100 41,120 30,141 -7,12 -18,17 -30,14 -13,-3 -34,8 -64,36 -37,34 -51,41 -79,39 -30,-2 -62,19 -254,158 -518,378 -879,627 -2329,1604 -442,298 -750,508 -1030,704 -60,42 -118,76 -130,75 -11,-1 -47,-7 -80,-14 z m 271,-206 c 225,-157 854,-584 1559,-1059 523,-352 945,-642 1255,-860 277,-195 630,-453 630,-460 0,-7 -26,-11 -270,-35 -215,-21 -450,-33 -885,-45 -717,-19 -1045,-40 -1361,-85 -607,-87 -1062,-266 -1429,-562 -110,-89 -252,-232 -334,-335 -29,-38 -58,-68 -64,-68 -7,0 -44,34 -83,75 -38,41 -84,80 -102,88 -54,23 -388,334 -1332,1242 -786,756 -1071,1028 -1278,1219 l -161,149 31,46 c 265,388 665,621 1210,705 221,34 304,38 1133,46 873,8 982,13 1185,54 36,8 74,14 86,15 12,0 101,-55 210,-130 z M 3655,6001 c 229,-47 444,-138 643,-272 124,-83 156,-108 163,-126 2,-6 81,-82 174,-169 242,-225 479,-449 795,-754 934,-901 1364,-1311 1686,-1606 117,-107 140,-132 134,-149 -9,-24 -6,-23 -250,-5 -656,48 -1380,-116 -2221,-505 -170,-79 -506,-247 -704,-352 -82,-44 -296,-158 -475,-253 -443,-236 -860,-444 -869,-434 -21,23 -236,347 -386,579 -183,284 -332,520 -710,1130 -435,701 -775,1229 -1020,1582 -43,62 -77,115 -74,117 17,16 642,425 776,509 733,455 1210,651 1778,731 17,2 127,3 245,1 169,-3 236,-8 315,-24 z M 588,4538 c 241,-349 513,-772 957,-1488 516,-832 754,-1206 978,-1538 l 131,-193 -12,-152 c -22,-259 -43,-431 -58,-464 -11,-25 -13,-54 -8,-128 4,-52 4,-95 1,-95 -3,0 -151,228 -330,508 -705,1104 -1157,1823 -1683,2681 -264,431 -301,496 -287,506 12,9 15,27 14,70 -2,100 38,276 83,363 19,37 74,102 86,102 5,0 62,-78 128,-172 z m 11374,-702 c 3,-14 3,-69 0,-124 -4,-90 -3,-100 15,-113 16,-11 21,-30 26,-99 7,-93 27,-173 86,-344 21,-61 41,-128 45,-148 6,-35 5,-38 -16,-38 -1264,-12 -1781,-26 -2133,-56 -866,-74 -1405,-264 -1746,-615 l -86,-88 -26,57 c -14,31 -40,90 -58,130 -37,83 -81,128 -135,138 -63,12 -195,-4 -303,-35 -57,-17 -117,-31 -133,-31 -28,0 -30,2 -23,27 16,66 26,82 181,288 181,241 414,444 674,587 185,102 454,200 700,256 396,91 760,122 1695,147 481,12 957,44 1130,74 89,15 102,14 107,-13 z M 7143,2801 c 45,-6 73,-15 81,-26 9,-12 33,-20 73,-24 l 61,-6 -106,-160 c -166,-254 -208,-359 -219,-556 l -6,-106 -231,-6 C 5881,1892 5113,1669 4172,1153 4086,1106 3822,956 3585,820 3000,484 2696,321 2682,334 c -3,3 7,50 22,104 18,71 26,123 26,184 0,48 7,144 15,215 8,70 21,197 28,281 8,84 16,154 18,156 2,2 110,56 239,119 129,64 451,231 715,372 1126,602 1621,816 2205,954 181,43 426,81 615,95 84,6 505,-3 578,-13 z"
       id="path427"
       style="fill:#ffffff" /></g><g
     transform="matrix(0.00262975,0,0,-0.00237843,14.409506,38.1068)"
     fill="#000000"
     stroke="none"
     id="g507"
     style="fill:#ffffff"><path
       d="m 4008,12530 c -69,-16 -136,-34 -148,-40 -13,-7 -52,-22 -89,-35 -139,-48 -290,-125 -373,-189 -92,-71 -121,-100 -195,-197 -88,-114 -87,-111 -91,-316 -3,-159 -2,-186 14,-215 26,-50 29,-253 10,-751 -13,-335 -27,-536 -62,-895 -24,-254 -44,-469 -44,-476 0,-8 -25,-28 -55,-44 -30,-16 -92,-58 -137,-91 -56,-42 -123,-79 -203,-113 -155,-66 -240,-126 -400,-283 -71,-70 -176,-163 -232,-206 -58,-45 -110,-93 -119,-112 -9,-17 -74,-91 -143,-163 -98,-101 -139,-153 -181,-225 -29,-52 -72,-115 -94,-140 -23,-25 -50,-63 -61,-85 -11,-21 -32,-55 -47,-74 -14,-19 -34,-62 -43,-94 -9,-33 -29,-85 -45,-115 -29,-60 -90,-211 -110,-276 -7,-22 -30,-78 -52,-125 -76,-165 -147,-346 -162,-410 -12,-51 -22,-71 -46,-90 -24,-19 -36,-43 -51,-95 -10,-38 -25,-75 -33,-83 -15,-16 -152,-76 -193,-86 C 570,6493 445,6436 399,6403 336,6358 165,6178 141,6132 131,6112 103,6041 80,5975 57,5909 30,5840 19,5822 5,5797 0,5769 0,5714 c 0,-41 4,-74 8,-74 5,0 19,-19 32,-42 12,-24 38,-59 56,-78 47,-50 74,-134 83,-265 7,-91 13,-118 34,-154 14,-25 34,-74 43,-110 20,-78 71,-138 149,-178 28,-14 61,-34 74,-44 21,-17 43,-19 200,-19 159,0 178,2 201,20 14,11 28,20 32,20 11,0 34,-50 47,-104 18,-74 47,-124 84,-142 17,-9 53,-34 79,-55 112,-94 276,-128 388,-81 14,5 44,15 68,21 52,15 104,59 139,120 15,25 35,57 45,70 10,13 18,38 18,56 0,18 10,62 21,97 12,34 24,104 28,153 l 6,90 62,6 c 46,4 73,14 103,34 80,56 157,169 179,265 15,65 13,201 -3,248 -8,22 -17,93 -21,159 -7,111 -9,124 -50,213 -24,52 -46,109 -50,126 -3,17 -24,53 -47,80 -22,27 -49,69 -60,94 -10,25 -31,55 -46,67 -27,22 -27,25 -33,170 -3,105 -11,165 -24,205 l -18,57 31,68 c 17,37 43,99 57,136 43,116 92,210 138,265 26,31 66,103 97,170 28,64 64,132 79,152 15,19 61,84 102,145 48,71 123,160 214,255 77,80 161,173 187,207 49,65 109,111 178,139 34,14 44,14 50,4 4,-7 10,-169 13,-359 4,-331 18,-583 52,-976 35,-395 92,-885 125,-1060 10,-55 21,-127 25,-160 4,-33 17,-107 30,-165 13,-58 28,-139 34,-180 6,-41 17,-120 25,-175 9,-55 34,-167 57,-250 22,-82 56,-220 74,-305 133,-615 154,-695 190,-725 14,-12 25,-26 25,-32 0,-21 53,-75 87,-89 66,-28 301,-13 368,23 65,35 171,111 204,147 l 35,36 h 201 c 146,0 206,-3 217,-13 15,-11 15,-20 -8,-107 -53,-207 -65,-283 -104,-690 -18,-182 -77,-630 -85,-638 -2,-2 -12,2 -23,9 -17,10 -25,10 -46,-4 -14,-9 -31,-17 -38,-17 -28,0 -136,-59 -156,-85 -28,-36 -41,-83 -50,-191 l -7,-88 -44,-13 c -48,-14 -149,-35 -391,-84 -218,-44 -214,-42 -150,-49 l 55,-5 -53,-39 c -34,-25 -64,-39 -82,-38 -34,1 -138,52 -205,101 l -50,36 -178,3 c -280,5 -370,-17 -483,-119 -36,-33 -96,-80 -134,-104 -78,-50 -104,-87 -136,-194 -12,-42 -34,-109 -49,-150 -22,-60 -25,-83 -20,-125 10,-72 90,-324 110,-347 18,-19 17,-37 -7,-137 -12,-53 -12,-54 27,-130 65,-128 81,-150 135,-177 27,-14 64,-38 82,-53 18,-16 76,-50 128,-75 52,-25 115,-57 140,-71 25,-14 91,-46 147,-71 85,-37 127,-49 240,-66 75,-12 158,-28 183,-36 25,-7 106,-18 180,-23 74,-5 169,-15 210,-22 98,-16 385,-16 475,0 39,7 123,17 187,22 139,11 400,78 524,136 43,20 122,51 176,69 140,48 245,107 345,192 48,42 120,100 160,130 64,48 72,59 78,96 4,23 13,54 20,69 7,16 16,87 20,166 l 7,139 -51,28 -51,28 v 146 c 0,96 -5,166 -14,201 -21,80 -92,240 -120,270 -13,14 -26,33 -29,42 -3,10 -35,38 -71,64 l -64,46 28,44 c 15,24 33,64 40,88 17,63 9,191 -15,241 -18,37 -27,42 -100,67 -78,26 -80,27 -83,62 -2,19 8,115 22,213 14,98 35,249 46,335 14,107 33,198 59,285 22,70 49,189 60,263 12,74 31,179 43,233 l 21,97 h 122 c 91,0 140,-5 196,-20 48,-13 131,-24 234,-30 88,-5 175,-14 194,-19 19,-6 68,-13 110,-16 42,-4 114,-15 161,-25 47,-10 139,-22 205,-25 66,-4 152,-13 190,-21 39,-9 142,-19 230,-24 88,-4 174,-13 190,-20 17,-6 52,-17 80,-24 38,-10 51,-19 56,-37 4,-13 7,-151 8,-306 l 1,-281 -49,-139 c -62,-175 -103,-277 -142,-356 -43,-86 -55,-98 -86,-86 -13,5 -59,9 -101,9 -76,0 -77,-1 -112,-38 -19,-20 -52,-52 -72,-69 -45,-39 -51,-67 -46,-203 3,-91 5,-104 26,-120 12,-10 22,-22 22,-27 0,-4 -29,-28 -65,-52 -73,-49 -183,-162 -222,-229 -14,-23 -38,-84 -53,-135 -16,-51 -37,-118 -49,-149 -12,-32 -21,-73 -21,-93 0,-30 -5,-37 -37,-54 -59,-30 -73,-64 -86,-207 -10,-114 -9,-130 7,-172 10,-26 20,-57 23,-70 3,-12 72,-89 153,-170 150,-150 232,-222 253,-222 7,0 39,-27 72,-61 117,-119 376,-250 595,-301 69,-17 177,-43 240,-59 63,-17 201,-48 305,-71 L 8295,7 8585,6 c 268,-1 298,1 400,22 109,23 423,102 562,141 103,30 183,79 212,133 14,23 35,56 48,71 21,26 23,38 23,135 0,111 2,116 53,188 15,21 49,71 75,109 l 47,70 3,155 3,155 -52,155 c -40,120 -59,163 -85,192 -19,21 -34,42 -34,47 0,20 -135,94 -217,120 -48,15 -108,39 -133,52 -43,23 -53,24 -241,24 -173,0 -197,-2 -213,-17 -18,-19 -30,-23 -110,-37 -49,-9 -50,-9 -103,37 -57,50 -62,58 -35,64 19,5 -23,26 -113,58 -28,9 -75,29 -105,42 -59,27 -124,44 -205,53 -27,4 -61,8 -75,11 l -25,4 3,115 c 4,126 9,108 -75,241 -13,19 -23,41 -23,49 0,7 20,36 44,65 44,52 56,78 96,205 12,39 39,108 61,154 l 39,84 v 373 374 h 34 c 49,0 153,35 209,71 83,52 117,155 117,356 v 114 l 31,-18 31,-18 24,30 c 14,17 36,51 50,77 40,79 31,77 354,68 158,-5 305,-14 330,-20 26,-7 128,-13 242,-13 l 196,-2 89,46 c 76,40 94,54 131,107 58,83 82,178 82,331 0,98 -4,127 -25,186 -21,60 -25,88 -25,200 0,92 -6,158 -21,225 -11,52 -27,145 -35,205 -8,61 -26,160 -40,220 -47,207 -64,296 -119,623 -73,434 -93,599 -105,859 -5,120 -18,299 -29,398 -11,99 -21,226 -23,283 l -4,102 86,1 c 47,0 175,4 285,9 161,6 214,12 270,30 102,32 202,83 265,134 30,26 60,46 67,46 21,0 147,110 227,198 43,48 85,89 93,90 8,2 43,-9 79,-24 l 65,-27 30,22 c 17,12 47,25 67,27 20,3 69,22 108,42 l 71,36 119,-37 c 135,-43 200,-47 272,-18 26,10 72,28 102,40 30,12 80,29 110,37 64,17 81,31 126,101 18,29 75,96 125,150 88,94 218,274 240,330 6,16 17,64 25,108 8,44 27,115 41,158 22,65 25,88 20,146 -7,90 -47,201 -89,252 -75,91 -155,173 -189,194 l -36,23 -6,146 c -4,81 -12,156 -18,169 -6,12 -32,43 -57,69 -25,26 -57,68 -71,95 -29,53 -81,88 -146,98 -22,4 -64,18 -94,31 -30,14 -72,24 -97,24 -24,0 -44,5 -44,10 0,6 13,36 29,68 35,70 66,166 82,252 7,36 30,114 51,173 l 38,108 v 220 c 0,264 -11,328 -72,420 -56,83 -117,112 -238,113 -135,1 -216,-47 -269,-157 -17,-35 -42,-74 -56,-87 -40,-37 -73,-98 -111,-207 -21,-59 -46,-109 -63,-128 -37,-39 -44,-54 -70,-150 -12,-44 -43,-124 -68,-177 l -46,-98 h -81 c -92,0 -209,-22 -240,-45 -12,-9 -45,-31 -74,-51 -45,-30 -58,-46 -86,-107 -18,-40 -45,-83 -60,-97 -41,-37 -63,-78 -81,-150 -9,-36 -26,-92 -39,-125 -13,-33 -27,-94 -31,-135 -3,-41 -13,-100 -21,-130 -12,-44 -15,-102 -12,-265 3,-242 1,-233 103,-344 36,-39 65,-75 65,-80 0,-5 -9,-12 -19,-16 -15,-4 -21,-18 -26,-53 -3,-26 -12,-75 -20,-109 -9,-37 -15,-110 -15,-185 v -124 l -87,-42 c -52,-24 -111,-44 -143,-48 -30,-3 -82,-12 -115,-20 -33,-8 -102,-14 -154,-14 h -94 l 7,73 c 4,39 11,187 16,327 5,140 16,325 25,410 8,85 15,207 15,270 0,124 15,318 54,725 58,589 69,871 40,980 -25,97 -58,149 -188,291 -70,75 -134,121 -185,130 -20,4 -41,11 -47,15 -6,5 -65,13 -130,18 -66,5 -130,14 -144,19 -14,5 -68,15 -120,21 -52,7 -126,19 -164,27 -38,8 -148,19 -245,24 -109,5 -195,15 -226,24 -27,9 -100,21 -163,26 -62,6 -132,15 -155,20 -23,6 -143,13 -267,16 -178,4 -242,10 -305,26 -53,13 -138,23 -250,28 -93,5 -195,14 -225,20 -30,6 -163,15 -295,19 -198,7 -248,12 -285,27 -43,18 -102,19 -1300,20 l -1255,2 z M 6614,1240 c 6,-24 6,-24 -9,3 -13,23 -19,26 -35,17 -25,-13 -26,-2 -2,20 15,15 18,15 28,1 6,-9 14,-27 18,-41 z m 156,-361 c 22,-13 54,-43 70,-68 34,-54 63,-73 145,-96 69,-20 135,-52 185,-90 19,-14 67,-35 105,-46 39,-11 113,-40 165,-64 52,-24 124,-49 160,-55 65,-12 118,-32 178,-71 23,-15 59,-23 125,-29 50,-5 118,-18 149,-29 32,-12 79,-21 105,-21 27,0 61,-8 78,-18 27,-15 65,-17 390,-16 244,0 384,4 435,13 41,7 118,16 170,21 159,13 304,84 457,224 29,26 53,44 53,38 0,-12 -97,-101 -165,-152 -27,-21 -95,-57 -150,-80 -82,-35 -117,-44 -195,-51 -52,-4 -129,-14 -170,-20 -108,-18 -791,-19 -812,-1 -9,7 -51,17 -94,22 -44,5 -105,18 -136,30 -32,11 -81,20 -110,20 -65,0 -126,16 -153,40 -32,28 -57,38 -152,59 -51,11 -125,37 -169,59 -44,21 -109,47 -146,56 -37,10 -94,36 -128,57 -68,45 -129,73 -180,84 -64,14 -110,44 -140,93 -17,28 -46,57 -69,70 -40,23 -73,66 -85,112 -4,14 5,4 19,-22 16,-30 39,-54 65,-69 z"
       id="path505"
       style="fill:#ffffff" /></g></svg>
