<?xml version="1.0" encoding="UTF-8" standalone="no"?>
<svg
   xmlns:dc="http://purl.org/dc/elements/1.1/"
   xmlns:cc="http://creativecommons.org/ns#"
   xmlns:rdf="http://www.w3.org/1999/02/22-rdf-syntax-ns#"
   xmlns:svg="http://www.w3.org/2000/svg"
   xmlns="http://www.w3.org/2000/svg"
   id="Layer_1"
   version="1.1"
   viewBox="0 0 64 64"
   xml:space="preserve"
   width="64"
   height="64"><metadata
     id="metadata101"><rdf:RDF><cc:Work
         rdf:about=""><dc:format>image/svg+xml</dc:format><dc:type
           rdf:resource="http://purl.org/dc/dcmitype/StillImage" /><dc:title></dc:title></cc:Work></rdf:RDF></metadata><defs
     id="defs99" /><g
     id="g108"
     transform="matrix(1.1706916,0,0,1.1996637,-22.616588,-25.229591)"
     style="fill:#2a2aff"><g
       id="g94"
       style="fill:#2a2aff"><path
         d="m 66.9,41.8 c 0,-11.3 -9.1,-20.4 -20.4,-20.4 -11.3,0 -20.4,9.1 -20.4,20.4 0,11.3 20.4,32.4 20.4,32.4 0,0 20.4,-21.1 20.4,-32.4 z M 37,41.4 c 0,-5.2 4.3,-9.5 9.5,-9.5 5.2,0 9.5,4.2 9.5,9.5 0,5.2 -4.2,9.5 -9.5,9.5 -5.2,0 -9.5,-4.3 -9.5,-9.5 z"
         id="path92"
         style="fill:#2a2aff" /></g><path
       id="rect103"
       style="fill:#2a2aff"
       d="M 34.573826,29.995224 H 56.594337 V 53.269518 H 34.573826 Z" /></g><g
     id="g206"
     transform="matrix(0.06204189,0,0,0.06413708,14.973251,7.9883282)"
     style="fill:#ffffff"><path
       d="m 265.83463,-13.961065 c -148.333,0 -269.0220034,120.676995 -269.0220034,269.021995 0,148.345 120.6890034,269.022 269.0220034,269.022 148.333,0 269.022,-120.677 269.022,-269.022 0,-148.345 -120.69,-269.021995 -269.022,-269.021995 z m 198.789,124.502995 h -11.502 c -4.962,0 -9.35,3.204 -10.88,7.915 l -24.654,75.876 -64.482,28.337 -75.828,-55.084 V 91.542935 l 63.991,-46.463 c 4.017,-2.917 5.691,-8.083 4.161,-12.794 l -3.647,-11.227 c 49.834,16.214 92.59,47.97 122.841,89.482995 z m -274.725,-89.493995 -3.647,11.227 c -1.53,4.723 0.143,9.876 4.161,12.794 l 63.979,46.463 v 76.042995 l -75.828,55.084 -64.494,-28.349 -24.666003,-75.876 c -1.53,-4.735 -5.93,-7.915 -10.88,-7.915 h -11.479 C 97.294627,69.028935 140.06363,37.272935 189.89863,21.047935 Z M 19.721627,254.86893 l 9.637,7.007 c 2.009,1.447 4.364,2.2 6.731,2.2 2.355,0 4.723,-0.741 6.731,-2.2 l 63.369003,-46.045 64.482,28.349 29.257,89.997 -38.99,46.427 H 81.380627 c -4.962,0 -9.35,3.204 -10.88,7.915 l -3.551,10.916 c -29.568,-40.592 -47.24,-90.403 -47.24,-144.375 0,-0.071 0.012,-0.131 0.012,-0.191 z m 169.985003,234.133 9.529,-6.959 c 4.017,-2.894 5.703,-8.083 4.173,-12.781 l -24.284,-74.692 38.99,-46.403 h 95.437 l 38.954,46.403 -24.272,74.704 c -1.53,4.723 0.167,9.876 4.185,12.794 l 9.529,6.935 c -23.985,7.808 -49.536,12.196 -76.103,12.196 -26.59,-0.002 -52.141,-4.366 -76.138,-12.197 z m 275,-89.531 -3.551,-10.952 c -1.542,-4.723 -5.942,-7.903 -10.892,-7.903 l -79.547,0.012 -38.954,-46.415 29.234,-90.008 64.505,-28.337 63.358,46.009 c 2.009,1.47 4.364,2.212 6.732,2.212 2.367,0 4.735,-0.741 6.732,-2.212 l 9.637,-6.994 c 0,0.06 0.012,0.12 0.012,0.191 -0.014,53.958 -17.709,103.769 -47.266,144.397 z"
       id="path204"
       style="fill:#ffffff;image-rendering:auto" /></g></svg>
